<mxfile host="app.diagrams.net" modified="2023-05-26T08:39:56.438Z" agent="Mozilla/5.0 (X11; Linux x86_64) AppleWebKit/537.36 (KHTML, like Gecko) Chrome/111.0.0.0 Safari/537.36" version="21.3.3" etag="KIzSsGhUE9JdTCNalWTq" type="github">
  <diagram name="Page-1" id="Uboa6KiDouqAGyaA1Gs6">
    <mxGraphModel>
      <root>
        <mxCell id="0" />
        <mxCell id="1" parent="0" />
      </root>
    </mxGraphModel>
  </diagram>
</mxfile>
